<svg width="25" height="30" viewBox="0 0 25 30" fill="none" xmlns="http://www.w3.org/2000/svg">
<path d="M1.25441 10.934C-1.25999 15.2976 0.338024 21.9203 3.1191 25.9359C4.50706 27.9427 5.91253 29.7456 7.83694 29.7456H7.94711C8.85114 29.7095 9.50496 29.4315 10.1372 29.1628C10.8466 28.8601 11.5787 28.545 12.7308 28.545C13.8254 28.545 14.5245 28.8477 15.202 29.1402C15.8795 29.4326 16.5539 29.7271 17.5702 29.7075C19.7386 29.6673 21.071 27.7223 22.2448 26.0069C23.1238 24.7134 23.8134 23.3008 24.2927 21.8122L24.301 21.7864C24.3199 21.7293 24.3172 21.6671 24.2933 21.6119C24.2693 21.5566 24.2259 21.5121 24.1712 21.4868L24.1537 21.4796C23.7717 21.3231 20.4223 19.8322 20.3873 15.7877C20.3543 12.498 22.8996 10.7558 23.4103 10.4397L23.434 10.4243C23.4606 10.4065 23.4835 10.3836 23.5011 10.3569C23.5188 10.3302 23.531 10.3003 23.537 10.2688C23.5436 10.2368 23.5438 10.2039 23.5374 10.1718C23.531 10.1398 23.5183 10.1094 23.4999 10.0824C21.7433 7.50832 19.0508 7.12427 17.9656 7.07793C17.8055 7.06167 17.6446 7.05377 17.4837 7.05425C16.21 7.05425 14.9909 7.53509 14.0107 7.92121C13.3342 8.18789 12.7494 8.41853 12.3468 8.41853C11.8937 8.41853 11.3068 8.1848 10.6262 7.91503C9.71604 7.55466 8.68434 7.14486 7.59291 7.14486H7.51672C4.97555 7.18193 2.57647 8.63476 1.25441 10.934Z" fill="black"/>
<path d="M17.9666 0.000121844C16.4293 0.0629302 14.5852 1.00918 13.4835 2.30035C12.5455 3.38457 11.6301 5.19469 11.8721 7.01819C11.8795 7.07349 11.9056 7.12461 11.946 7.16302C11.9865 7.20143 12.0389 7.22481 12.0945 7.22927C12.1975 7.2375 12.3004 7.24162 12.4096 7.24162C13.9129 7.24162 15.5346 6.40967 16.6425 5.07113C17.808 3.65742 18.3959 1.84216 18.2188 0.218407C18.2119 0.156991 18.1821 0.10044 18.1354 0.0599963C18.0886 0.0195526 18.0284 -0.00182203 17.9666 0.000121844Z" fill="black"/>
</svg>
