<svg width="30" height="33" viewBox="0 0 30 33" fill="none" xmlns="http://www.w3.org/2000/svg">
<path d="M28.6169 15.038L22.7108 11.632L17.854 16.3271L22.2928 20.6187L28.6169 16.9676C28.786 16.8699 28.9264 16.7294 29.0241 16.5602C29.1217 16.391 29.1731 16.1992 29.1731 16.0038C29.1731 15.8085 29.1217 15.6166 29.0241 15.4475C28.9264 15.2783 28.786 15.1378 28.6169 15.0401V15.038Z" fill="#FFD109"/>
<path d="M21.7091 11.0502L15.2089 7.29916L0.96582 0L17.053 15.5507L21.7091 11.0502Z" fill="#06EF79"/>
<path d="M1.20166 32.4215L15.2337 24.692L21.2901 21.1953L17.0531 17.0993L1.20166 32.4215Z" fill="#F93646"/>
<path d="M0.0154448 0.62912L0 32.0354L16.253 16.325L0.0154448 0.62912Z" fill="#05D5FB"/>
</svg>
