<svg width="710" height="530" viewBox="0 0 710 530" fill="none" xmlns="http://www.w3.org/2000/svg">
<path d="M707.681 290.965C709.106 270.102 711.109 249.223 709.247 228.36C707.04 203.835 701.171 179.027 689.87 157.022C679.403 137.045 664.393 119.804 646.047 106.687C627.469 93.18 606.292 83.711 584.318 77.2314C560.841 70.3291 536.613 66.6824 512.322 63.6147C462.238 51.3128 406.238 40.983 349.204 20.6989C319.937 10.2752 293.486 4.37464 269.383 2.77821C265.361 2.19912 261.338 1.79218 257.378 1.41655C245.687 0.278713 233.937 -0.134227 222.194 0.1801C204.978 0.696592 188.231 6.33105 172.674 13.6715C158.67 20.1594 145.484 28.2815 133.389 37.8684C121.097 47.628 110.317 59.1521 101.398 72.0664C92.588 85.189 85.2899 99.2654 79.6424 114.028C73.8264 129.172 68.8213 144.616 64.6485 160.293C59.9531 177.306 55.5394 194.397 51.2823 211.519C47.9799 224.745 44.787 238.001 41.5942 251.258C37.9213 262.84 34.2694 274.787 30.6383 287.099C24.2851 308.249 19.2617 329.775 15.5974 351.551C9.47772 367.203 2.21552 382.713 0.399975 399.663C-0.329194 406.594 -0.0603848 413.594 1.19819 420.448C2.0197 424.994 3.19717 429.469 4.71973 433.83C6.63368 439.348 9.05431 444.676 11.9506 449.748C15.4295 455.816 19.5428 461.498 24.2212 466.698C29.7948 472.871 36.0243 478.418 42.7993 483.241C50.9778 489.039 59.7376 493.97 68.9369 497.953C80.2738 502.876 92.0345 506.758 104.074 509.551C118.167 512.843 132.477 515.118 146.896 516.359C199.265 524.545 266.769 526.768 349.22 528.661C418.759 530.227 476.653 530.618 524.217 526.517C539.023 526.799 553.829 526.517 568.573 525.625C591.549 524.185 614.948 520.57 635.952 510.678C646.413 505.831 655.972 499.236 664.218 491.177C673.125 482.142 680.373 471.609 685.629 460.062C695.02 440.059 699.308 418.367 702.078 396.565C707.65 367.782 709.372 332.973 707.681 290.965ZM63.2555 174.708C67.3718 159.275 71.6133 143.859 76.8095 128.74C81.8348 113.549 88.3022 98.8745 96.1232 84.9161C103.854 71.4706 113.514 59.2315 124.796 48.5895C136.113 38.0402 148.737 28.9876 162.359 21.6537C176.821 13.828 192.379 7.09797 208.656 4.12422C219.768 2.10521 231.319 2.30867 242.604 2.88777C151.122 9.71173 97.2188 87.796 51.0945 222.428C55.0073 206.495 59.061 190.588 63.2555 174.708ZM2.96678 416.238C2.96678 416.082 2.96678 416.129 2.96678 416.238V416.238ZM77.4825 498.877C67.774 495.189 58.4615 490.533 49.6859 484.979C42.4573 480.395 35.7502 475.037 29.6835 468.999C24.6713 463.956 20.2163 458.389 16.3956 452.393C13.2055 447.393 10.5012 442.1 8.31952 436.585C6.54312 432.063 5.13514 427.404 4.10933 422.655C3.7024 420.746 3.34242 418.821 3.06069 416.896C3.06069 416.692 3.06069 416.489 2.98244 416.285V415.941L2.84157 414.736C2.74767 413.937 2.66941 413.171 2.60681 412.325C1.18254 394.765 7.52131 377.893 14.0322 361.944V361.615C3.29546 444.567 31.5304 484.979 98.064 505.607C91.0903 503.726 84.2203 501.479 77.4825 498.877ZM574.348 76.9809C596.745 82.7563 618.453 91.2549 637.877 103.948C656.508 115.859 672.18 131.857 683.704 150.73C696.225 171.859 702.861 196.119 705.991 220.378C708.182 237.313 707.666 254.247 706.633 271.198C695.802 132.793 626.326 94.0565 532.606 68.7953C546.652 70.7995 560.585 73.5317 574.348 76.9809ZM687.037 450.671C682.564 462.592 676.161 473.696 668.084 483.539C660.568 492.344 651.516 499.71 641.367 505.278C621.177 516.469 597.95 520.93 575.178 522.792C565.662 523.59 556.114 524.044 546.551 524.216C627.187 513.933 674.141 487.013 695.082 423.829C693.104 432.972 690.414 441.947 687.037 450.671Z" fill="#FFE9E9"/>
<path d="M705.976 369.895C703.548 362.142 698.767 355.337 692.296 350.425C681.998 342.943 668.397 342.051 656.111 343.162C624.432 346.042 594.695 361.474 566.523 374.981C553.516 381.242 540.479 387.753 526.768 392.323C507.251 398.834 488 406.675 467.951 411.418C447.901 416.16 428.071 416.379 408.476 409.852C390.656 403.773 374.024 394.655 359.315 382.901C328.858 358.908 307.149 326.275 289.808 291.998C281.074 274.782 273.734 256.908 265.392 239.488C257.957 223.931 248.895 208.624 235.138 197.84C221.881 187.432 205.4 182.424 188.794 180.89C171.687 179.283 154.429 180.773 137.85 185.288C108.237 193.63 83.07 213.46 62.3008 235.591C53.2454 245.254 44.7834 255.456 36.9613 266.142L34.7545 273.373C39.0951 267.238 43.6079 261.244 48.2929 255.39C67.7787 231.115 91.0365 208.342 119.428 194.819C133.66 188.202 148.998 184.286 164.66 183.269C182.737 181.845 201.691 183.269 218.438 190.672C252.558 205.838 264.249 243.886 278.836 275.079C294.785 309.262 313.582 342.818 340.581 369.582C352.965 382.001 367.038 392.613 382.385 401.103C397.723 409.477 414.83 416.066 432.375 417.318C451.877 418.711 471.128 413.797 489.503 407.74C499.034 404.609 508.456 401.119 517.957 397.848C525.141 395.375 532.325 393.153 539.321 390.147C568.135 378.112 595.29 362.304 625.058 352.584C647.549 345.213 683.25 337.043 698.995 360.958C701.919 365.507 704.036 370.527 705.256 375.795C705.537 373.823 705.819 371.867 705.976 369.895Z" fill="white"/>
<path d="M413.25 40.0752L406.582 38.3223C380.297 40.8542 354.207 45.1154 328.482 51.0781C315.498 54.0808 302.708 57.8702 290.184 62.4253C279.377 66.2278 269.017 71.1978 259.288 77.247C247.143 85.0727 238.08 96.3729 227.86 106.421C214.619 119.427 198.123 131.463 178.731 131.463C169.988 131.4 161.412 129.065 153.845 124.686C147.115 120.852 140.526 115.405 136.911 108.44C133.874 101.985 131.973 95.0539 131.292 87.9525C130.39 80.6227 130.128 73.2282 130.509 65.8529C130.509 65.1329 130.509 64.4286 130.634 63.7087C129.742 64.7886 128.834 65.8842 127.942 66.9954C127.335 77.6503 128.311 88.3362 130.838 98.7049C132.22 105.241 135.217 111.326 139.556 116.407C145.312 122.677 152.465 127.503 160.434 130.493C168.552 133.62 177.336 134.611 185.946 133.373C195.072 131.842 203.759 128.355 211.411 123.152C219.426 117.663 226.82 111.318 233.463 104.23C239.473 98.0945 245.155 91.4897 251.666 85.8865C259.757 78.9217 269.367 73.8037 279.055 69.5153C291.035 64.3407 303.388 60.0767 316.008 56.7595C344.324 49.2987 373.187 44.0914 402.325 41.1865C405.956 40.8004 409.598 40.43 413.25 40.0752Z" fill="white"/>
<path d="M314.709 205.102C314.709 205.102 299.574 201.096 301.092 190.828C301.327 189.263 293.267 176.601 293.267 176.601C293.267 176.601 297.962 165.426 301.812 163.486C304.301 162.218 319.123 174.551 319.123 174.551C319.123 174.551 322.566 200.157 322.503 200.219C322.441 200.282 314.709 205.102 314.709 205.102Z" fill="#EA8577"/>
<path d="M308.949 162.672L304.911 157.929L302.861 162.343L305.459 166.632L308.949 162.672Z" fill="#EA8577"/>
<path d="M363.964 250.256C363.244 240.365 364.981 232.179 367.861 231.976C370.741 231.772 373.652 239.613 374.372 249.505C375.092 259.397 373.182 267.676 370.302 267.88C367.423 268.083 364.621 260.148 363.964 250.256Z" fill="#6F3D47"/>
<path d="M302.635 199.714L292.731 193.325C291.985 192.843 291.341 192.22 290.836 191.49C290.331 190.759 289.975 189.937 289.788 189.069C289.601 188.201 289.586 187.304 289.745 186.431C289.905 185.557 290.234 184.724 290.716 183.978L308.671 156.149C309.609 154.695 311.087 153.673 312.779 153.308C314.471 152.943 316.239 153.265 317.693 154.203L328.03 160.873C328.75 161.337 329.372 161.939 329.86 162.644C330.347 163.349 330.691 164.143 330.872 164.981C331.052 165.819 331.066 166.684 330.913 167.527C330.759 168.371 330.441 169.175 329.976 169.895L312.021 197.724C311.049 199.231 309.518 200.29 307.765 200.668C306.012 201.046 304.181 200.712 302.674 199.74L302.635 199.714Z" fill="#503C6B"/>
<path d="M309.527 200.479L289.103 187.301L309.221 156.119C310.068 154.845 311.385 153.959 312.883 153.655C314.382 153.351 315.94 153.654 317.216 154.497L327.934 161.412C329.221 162.243 330.126 163.55 330.448 165.048C330.771 166.545 330.486 168.109 329.656 169.396L309.58 200.513L309.527 200.479Z" fill="white"/>
<path d="M310.734 200.845C310.734 200.845 310.577 193.27 313.645 188.841C315.716 186.004 318.348 183.623 321.377 181.845C321.377 181.845 323.896 173.909 325.634 171.843C327.371 169.777 329.296 169.464 329.797 170.184C330.298 170.904 328.232 172.626 328.232 174.191C328.325 175.778 328.129 177.369 327.653 178.886C326.98 181.046 327.653 184.912 325.978 189.842C324.303 194.773 322.848 197.324 320.766 198.826C318.685 200.329 312.095 205.102 310.734 200.845Z" fill="#F8A68B"/>
<path d="M302.51 170.366C301.494 171.945 300.969 173.79 301.001 175.668C301.034 177.545 301.623 179.371 302.693 180.914C303.763 182.457 305.267 183.649 307.014 184.338C308.762 185.027 310.674 185.182 312.51 184.785C314.346 184.388 316.022 183.455 317.328 182.106C318.634 180.756 319.511 179.05 319.847 177.202C320.183 175.355 319.964 173.449 319.217 171.726C318.47 170.003 317.229 168.54 315.65 167.522C314.602 166.844 313.429 166.379 312.2 166.154C310.971 165.93 309.71 165.95 308.489 166.215C307.268 166.479 306.111 166.982 305.085 167.694C304.059 168.406 303.184 169.314 302.51 170.366Z" fill="#FFE9E9"/>
<path d="M307.078 179.52L307.84 180.012C308.988 180.753 310.518 180.423 311.259 179.275L314.501 174.252C315.242 173.105 314.912 171.574 313.765 170.833L313.002 170.341C311.854 169.6 310.324 169.93 309.583 171.078L306.341 176.101C305.6 177.249 305.93 178.779 307.078 179.52Z" fill="#FF5F5F"/>
<path d="M371.868 230.739L338.531 240.521C338.531 240.521 323.443 195.477 322.707 188.715C322.347 185.382 314.49 201.236 310.734 200.845C310.734 200.845 317.652 266.581 323.912 267.191C330.173 267.801 373.433 261.807 378.692 257.941C383.951 254.075 371.868 230.739 371.868 230.739Z" fill="#F8A68B"/>
<path d="M366.312 261.635C370.115 250.961 370.35 241.006 367.454 232.038L369.88 231.334C371.04 231.987 371.924 233.038 372.369 234.292L378.504 258.066C376.579 259.318 373.464 260.242 366.312 261.635Z" fill="#EA8577"/>
<path d="M409.525 219.329L367.438 232.038C372.243 236.342 375.264 263.341 370.475 267.88L402.184 255.922L409.525 219.329Z" fill="white"/>
<path d="M186.196 318.308L149.275 340.47C145.456 349.376 146.145 356.122 155.191 358.454L193.991 343.115L186.196 318.308Z" fill="#F8A68B"/>
<path d="M176.665 323.99L179.513 348.828L192.801 343.585L176.665 323.99Z" fill="#EA8577"/>
<path d="M204.54 393.716L189.953 417.193C189.139 430.919 190.673 432.672 203.522 428.415L231.068 400.743L204.54 393.716Z" fill="#F8A68B"/>
<path d="M198.091 404.093L214.181 417.709L205.776 430.23C205.776 430.23 213.602 443.831 200.439 448.777C197.309 449.951 187.918 447.885 180.483 448.777C171.985 449.795 165.098 453.629 157.116 452.533C142.122 450.468 134.265 447.697 133.31 441.202C132.356 434.707 146.051 438.369 156.443 434.613C170.529 429.542 184.615 418.68 187.214 416.676C191.815 413.264 198.091 404.093 198.091 404.093Z" fill="white"/>
<path d="M372.603 250.35L388.474 243.902L391.275 258.833L385.312 262.276L370.475 267.88C372.838 265.657 373.307 258.035 372.603 250.35Z" fill="#CBE3FF"/>
<path d="M202.521 396.987L218.234 413.515L222.132 409.68L202.521 396.987Z" fill="#EA8577"/>
<path d="M165.38 330.798C167.196 337.168 168.745 344.117 170.874 352.256L158.462 358.735C158.462 358.735 150.997 373.886 140.135 370.443C129.273 366.999 133.326 359.252 130.29 346.402C128.13 337.199 125.078 327.088 125.814 318.058C126.8 306.069 134.797 295.442 141.089 297.57C147.381 299.699 143.954 309.449 144.955 319.482C145.766 326.227 148.698 332.541 153.329 337.512L165.38 330.798Z" fill="white"/>
<path d="M434.316 191.188L441.312 215.37C441.312 215.37 413.14 247.877 402.716 244.058C392.292 240.239 418.853 216.23 418.853 216.23L413.656 201.409C413.656 201.409 424.503 186.947 434.316 191.188Z" fill="#F8A68B"/>
<path d="M417.835 213.538L415.425 206.667C422.264 202.457 436.178 199.077 436.178 199.077C436.178 199.077 429.73 212.74 417.835 213.538Z" fill="#EA8577"/>
<path d="M421.201 341.065C421.201 341.065 424.988 328.544 440.186 301.577C455.383 274.61 473.617 252.385 469.078 239.332C464.539 226.279 441.313 215.37 441.313 215.37C441.313 215.37 428.134 229.143 419.401 227.03C410.667 224.917 418.916 216.23 418.916 216.23C418.916 216.23 408.617 217.796 396.738 226.545C394.546 228.11 391.401 230.238 391.009 231.913C390.618 233.588 387.879 241.742 386.126 243.902C379.584 251.728 375.89 256.313 373.965 261.447C372.4 270.4 374.309 275.173 373.01 280.229C370.803 288.805 351.756 314.098 351.756 314.098L421.201 341.065Z" fill="white"/>
<path d="M433.221 196.651C433.221 196.651 426.584 210.189 414.846 210.518C403.108 210.846 400.009 208.17 399.351 205.822C398.694 203.475 404.704 191.861 404.704 191.861C404.704 191.861 399.899 189.529 400.009 187.792C400.103 186.743 410.964 175.662 410.964 175.662L415.91 165.912C415.91 165.912 420.308 156.239 434.16 165.912C448.011 175.584 433.221 196.651 433.221 196.651Z" fill="#F8A68B"/>
<path d="M463.819 261.635L441.203 290.699L433.08 289.118L395.595 312.11L436.774 319.185L466.934 278.037L463.819 261.635Z" fill="#CBE3FF"/>
<path d="M440.843 291.184C440.882 291.193 440.923 291.188 440.96 291.171C440.997 291.154 441.027 291.126 441.046 291.091L454.976 273.076C455.019 273.032 455.043 272.973 455.043 272.912C455.043 272.85 455.019 272.791 454.976 272.747C454.929 272.703 454.868 272.679 454.804 272.679C454.74 272.679 454.678 272.703 454.632 272.747L440.717 290.778C440.674 290.821 440.65 290.88 440.65 290.942C440.65 291.003 440.674 291.062 440.717 291.106C440.731 291.128 440.75 291.146 440.771 291.159C440.793 291.173 440.817 291.181 440.843 291.184Z" fill="#779FFF"/>
<path d="M427.758 280.714C423.251 273.138 421.591 265.798 424.08 264.327C426.569 262.856 432.203 267.801 436.711 275.377C441.218 282.952 442.877 290.277 440.404 291.748C437.931 293.219 432.266 288.273 427.758 280.714Z" fill="#6F3D47"/>
<path d="M431.624 187.636C431.624 187.636 417.882 187.213 415.394 179.293C415.09 178.746 414.744 178.223 414.361 177.728C414.361 177.728 416.176 175.318 414.721 174.285C414.753 173.127 415.053 171.992 415.596 170.969C416.139 169.945 416.91 169.061 417.851 168.384L436.883 178.495L431.624 187.636Z" fill="#EA8577"/>
<path d="M383.262 278.225C380.03 279.43 376.495 279.561 373.182 278.601C373.683 274.798 373.026 269.993 373.355 264.327C374.444 266.151 375.8 267.802 377.377 269.226C382.385 273.561 386.721 276.754 383.262 278.225Z" fill="#CBE3FF"/>
<path d="M428.212 257.049C417.757 267.88 408.617 266.815 404.203 276.895C399.789 286.974 402.497 296.036 384.514 297.633C387.159 298.462 395.47 289.087 406.425 279.822C414.238 272.777 421.52 265.165 428.212 257.049Z" fill="#CBE3FF"/>
<path d="M429.449 316.868C410.104 309.7 386.282 303.299 362.445 303.126L347.514 327.042L393.936 344.571L429.449 316.868Z" fill="#4A76D1"/>
<path d="M419.557 190.656C419.197 191.94 420.652 193.473 422.796 194.068C424.941 194.663 426.975 194.068 427.335 192.832C427.695 191.595 426.255 190.015 424.095 189.42C421.936 188.825 419.917 189.451 419.557 190.656Z" fill="#EA8577"/>
<path d="M412.827 175.991L412.217 181.265C412.217 181.265 414.83 184.02 417.162 184.396C419.494 184.771 420.653 184.693 420.653 184.693L420.778 180.201L412.827 175.991Z" fill="#EA8577"/>
<path d="M406.88 199.624C406.786 200.11 407.709 200.704 408.946 200.955C410.182 201.205 411.262 200.955 411.356 200.532C411.45 200.11 410.448 199.875 409.212 199.624C407.975 199.374 406.88 199.139 406.88 199.624Z" fill="#EA8577"/>
<path d="M400.102 187.761C399.805 188.199 400.822 189.326 402.356 190.484C403.89 191.642 405.393 192.049 405.69 191.642C405.987 191.235 404.892 190.453 403.342 189.373C401.793 188.293 400.4 187.338 400.102 187.761Z" fill="#EA8577"/>
<path d="M440.811 284.454C440.811 284.454 424.424 306.836 397.833 313.613C371.241 320.39 345.432 291.936 342.427 288.743C339.422 285.55 347.013 275.189 347.013 275.189C347.013 275.189 346.184 270.979 347.138 270.212C348.093 269.445 354.432 268.49 356.138 269.727C358.015 271.576 359.694 273.616 361.146 275.815C362.654 275.993 364.086 276.571 365.294 277.49C367.297 279.055 364.261 287.24 364.261 287.24C364.261 287.24 372.087 292.202 380.695 289.666C389.303 287.131 395.078 289.463 395.078 289.463L424.331 261.635C434.457 266.878 439.606 279.055 440.811 284.454Z" fill="#F8A68B"/>
<path d="M396.346 310.795C395.204 307.916 397.332 304.378 401.041 302.892C404.751 301.405 408.789 302.516 409.916 305.396C410.361 306.635 410.361 307.991 409.916 309.23C406.355 310.958 402.633 312.331 398.803 313.331C397.686 312.838 396.804 311.928 396.346 310.795Z" fill="#EA8577"/>
<path d="M424.346 261.619C430.888 272.074 436.116 281.496 436.46 289.588C438.063 288.035 439.52 286.337 440.811 284.517C439.938 279.718 438.007 275.173 435.16 271.212C432.312 267.252 428.618 263.975 424.346 261.619Z" fill="#EA8577"/>
<path d="M347.013 275.189L351.051 271.98C351.051 271.98 348.469 270.791 347.577 271.573C346.685 272.356 347.013 275.189 347.013 275.189Z" fill="#EA8577"/>
<path d="M427.837 218.656C424.816 220.018 422.515 220.128 421.404 218.187C421.232 218.456 421.131 218.765 421.111 219.084C421.091 219.403 421.153 219.722 421.291 220.01C421.429 220.298 421.638 220.547 421.899 220.732C422.16 220.917 422.464 221.032 422.781 221.067C425.379 221.661 427.837 218.656 427.837 218.656Z" fill="#EA8577"/>
<path d="M361.1 275.815L362.79 281.543C362.79 281.543 363.917 279.102 363.197 277.693C362.739 276.841 361.997 276.176 361.1 275.815Z" fill="#EA8577"/>
<path d="M424.299 261.635L440.138 243.166C440.16 243.143 440.187 243.124 440.217 243.111C440.246 243.098 440.278 243.091 440.311 243.091C440.343 243.091 440.375 243.098 440.405 243.111C440.434 243.124 440.461 243.143 440.483 243.166C440.527 243.213 440.551 243.274 440.551 243.338C440.551 243.402 440.527 243.464 440.483 243.511L424.738 261.885L424.299 261.635Z" fill="#779FFF"/>
<path d="M416.489 326.822C416.489 326.822 293.361 264.389 283.234 262.574C273.108 260.758 314.333 339.156 351.74 356.028C389.147 372.9 416.489 326.822 416.489 326.822Z" fill="#779FFF"/>
<path d="M282.42 262.636L177.494 323.614L197.622 342.724L300.294 303.252L282.42 262.636Z" fill="#779FFF"/>
<path d="M295.755 292.953L300.294 303.252L197.622 342.724L193.177 338.498C199.437 333.975 261.823 289.275 276.129 289.134C279.541 289.103 286.724 290.621 295.755 292.953Z" fill="#5587F0"/>
<path d="M293.689 292.421C324.037 300.106 403.436 346.621 403.436 346.621L357.327 358.109C355.422 357.537 353.556 356.841 351.74 356.028C330.188 346.261 307.196 315.929 293.689 292.421Z" fill="#5587F0"/>
<path d="M275.409 291.012C271.574 294.387 268.096 298.147 265.032 302.234C261.056 307.759 256.236 314.755 251.087 322.377C230.536 352.835 204.602 393.716 204.602 393.716L232.931 402.809L291.576 345.479C291.576 345.479 327.23 366.999 356.795 362.867C366.593 361.506 364.793 351.426 351.975 341.488C344.736 333.855 336.93 326.782 328.623 320.327C307.024 302.813 282.389 286.692 275.409 291.012Z" fill="#779FFF"/>
<path d="M221.365 397.926C221.365 397.926 271.198 321.235 284.205 318.308C297.211 315.381 342.568 360.911 342.568 360.911L329.797 373.432C306.555 373.135 291.514 345.432 291.514 345.432L232.868 402.762L221.365 397.926Z" fill="#5587F0"/>
<path d="M406.128 344.023L406.363 343.601C405.408 343.037 309.325 287.694 282.89 286.379C271.793 285.832 252.84 293.673 226.545 309.669C206.981 321.579 190.547 333.803 190.297 333.928L190.594 334.319C190.751 334.194 207.263 321.986 226.796 310.091C252.636 294.362 272.028 286.317 282.874 286.865C309.153 288.179 405.158 343.46 406.128 344.023Z" fill="#3849C9"/>
<path d="M220.379 393.325C222.664 391.321 276.598 344.352 277.584 340.11C277.816 338.01 277.641 335.884 277.068 333.85C276.426 330.72 275.816 327.589 277.756 326.509C277.877 326.434 278.012 326.387 278.153 326.371C278.293 326.354 278.436 326.37 278.57 326.415C279.681 326.854 280.542 329.546 281.372 332.191C282.201 334.836 283.078 337.59 284.346 338.123C284.514 338.203 284.699 338.245 284.885 338.245C285.072 338.245 285.257 338.203 285.425 338.123C287.147 337.277 287.319 333.865 287.507 330.297C287.695 326.728 287.898 322.988 289.777 322.988C289.923 322.985 290.068 323.013 290.203 323.069C290.337 323.126 290.459 323.21 290.559 323.316C291.702 324.459 291.639 328.294 291.608 331.674C291.608 335.603 291.514 338.999 293.016 339.359C294.519 339.719 295.849 337.919 297.211 336.025C298.573 334.132 300.028 332.159 301.609 332.598C304.739 333.474 330.439 359.674 340.424 372.884L340.815 372.602C330.564 359.033 305.068 333.052 301.687 332.128C299.793 331.596 298.26 333.693 296.773 335.744C295.505 337.497 294.3 339.156 293.079 338.874C291.858 338.592 291.999 334.93 292.046 331.69C292.046 328.043 292.14 324.271 290.872 322.988C290.725 322.833 290.547 322.711 290.351 322.627C290.155 322.544 289.943 322.501 289.73 322.503C287.382 322.503 287.194 326.275 286.991 330.328C286.803 333.631 286.631 337.058 285.175 337.794C285.067 337.844 284.95 337.87 284.831 337.87C284.712 337.87 284.594 337.844 284.486 337.794C283.422 337.356 282.593 334.664 281.794 332.175C280.887 329.311 280.026 326.603 278.664 326.087C278.465 326.012 278.251 325.984 278.039 326.006C277.827 326.028 277.623 326.098 277.443 326.212C275.19 327.511 275.878 330.704 276.52 334.038C277.076 336.027 277.251 338.103 277.036 340.157C276.269 343.475 239.379 376.28 219.972 393.168L220.379 393.325Z" fill="#3849C9"/>
<path d="M418.962 184.834H419.588C419.658 184.847 419.73 184.844 419.799 184.826C419.868 184.808 419.931 184.775 419.986 184.729C420.041 184.684 420.084 184.627 420.115 184.562C420.145 184.498 420.16 184.428 420.16 184.357C420.16 184.286 420.145 184.215 420.115 184.151C420.084 184.087 420.041 184.03 419.986 183.984C419.931 183.939 419.868 183.906 419.799 183.887C419.73 183.869 419.658 183.867 419.588 183.879C418.323 184.064 417.031 183.883 415.866 183.356C414.701 182.828 413.711 181.978 413.015 180.905C412.942 180.8 412.83 180.727 412.704 180.704C412.578 180.68 412.448 180.708 412.342 180.78C412.235 180.856 412.162 180.97 412.139 181.099C412.116 181.228 412.143 181.361 412.217 181.469C412.94 182.579 413.947 183.476 415.132 184.068C416.318 184.659 417.64 184.924 418.962 184.834Z" fill="#522D34"/>
<path d="M466.761 182.392C465.901 188.042 467.716 193.646 467.481 199.311C467.467 201.977 466.772 204.596 465.462 206.918C464.135 209.116 462.12 210.817 459.73 211.756C457.339 212.695 454.706 212.821 452.237 212.114C451.877 212.005 451.987 211.41 452.362 211.519C454.718 212.178 457.225 212.05 459.502 211.155C461.779 210.259 463.701 208.645 464.977 206.558C467.747 201.863 466.887 196.212 466.308 191.126C465.861 188.193 465.814 185.213 466.167 182.267C466.167 181.876 466.808 182.001 466.761 182.392Z" fill="#783238"/>
<path d="M446.947 165.16C448.191 164.312 449.622 163.775 451.117 163.595C452.612 163.415 454.129 163.598 455.539 164.127C458.685 165.344 461.357 167.538 463.162 170.388C463.728 171.086 464.127 171.905 464.328 172.781C464.528 173.657 464.526 174.568 464.32 175.443C464.195 175.819 463.6 175.694 463.725 175.334C464.398 173.33 463.193 171.374 462.019 169.84C460.827 168.227 459.353 166.843 457.668 165.755C456.142 164.711 454.342 164.141 452.493 164.116C450.644 164.091 448.829 164.612 447.275 165.614C446.962 165.849 446.618 165.332 446.947 165.113V165.16Z" fill="#783238"/>
<path d="M448.167 164.268C439.011 182.455 428.885 203.506 421.2 207.466C421.044 210.486 436.523 214.509 453.16 212.568C469.797 210.627 470.486 178.902 462.645 170.92C454.803 162.938 448.167 164.268 448.167 164.268Z" fill="#783238"/>
<path d="M431.249 200.25C431.843 203.381 461.111 206.354 463.005 182.173C463.615 165.692 448.168 164.268 448.168 164.268C448.168 164.268 439.935 146.426 424.55 147.756C409.165 149.086 404.579 163.407 405.142 169.668C405.706 175.928 408.711 177.493 408.711 177.493C408.951 176.011 409.501 174.596 410.323 173.34C411.145 172.083 412.222 171.014 413.484 170.2C417.601 167.868 418.039 168.447 418.039 168.447C416.87 169.597 416.022 171.032 415.58 172.611C415.138 174.19 415.117 175.857 415.519 177.447C416.724 183.363 428.807 185.272 428.807 185.272L426.099 182.549C429.014 183.273 432.026 183.527 435.021 183.3C436.789 191.016 435.631 194.976 431.249 200.25Z" fill="#783238"/>
<path d="M453.191 200.892C459.874 202.363 464.022 199.922 466.558 196.932C464.82 204.915 460.579 211.707 453.16 212.584C436.523 214.524 421.044 210.502 421.2 207.481C425.332 205.353 430.168 198.278 435.177 189.373C439.611 195.244 446.002 199.331 453.191 200.892Z" fill="#6A2C31"/>
<path d="M429.844 200.457L431.797 201.815C434.786 203.891 438.892 203.151 440.968 200.163L443.915 195.921C445.992 192.932 445.252 188.826 442.263 186.75L440.31 185.393C437.321 183.316 433.215 184.056 431.139 187.045L428.192 191.286C426.115 194.275 426.855 198.381 429.844 200.457Z" fill="#5587F0"/>
<path d="M434.958 202.489L429.699 198.842C429.191 198.482 428.846 197.938 428.738 197.325C428.629 196.713 428.766 196.083 429.12 195.571L434.645 187.62C434.829 187.365 435.062 187.149 435.331 186.985C435.6 186.821 435.898 186.712 436.21 186.665C436.512 186.605 436.824 186.607 437.125 186.671C437.427 186.736 437.712 186.862 437.963 187.041L443.206 190.688C443.715 191.042 444.063 191.583 444.174 192.193C444.286 192.803 444.151 193.432 443.801 193.943L438.182 201.972C438.001 202.232 437.769 202.453 437.5 202.62C437.231 202.786 436.93 202.896 436.617 202.942C436.326 202.99 436.03 202.99 435.74 202.942C435.451 202.846 435.185 202.692 434.958 202.489ZM436.241 187.135C435.999 187.176 435.768 187.265 435.561 187.397C435.354 187.529 435.176 187.7 435.036 187.902L429.511 195.852C429.233 196.258 429.126 196.757 429.214 197.24C429.302 197.724 429.577 198.154 429.981 198.435L435.224 202.082C435.63 202.362 436.129 202.474 436.617 202.395C436.857 202.351 437.087 202.259 437.291 202.125C437.496 201.99 437.671 201.816 437.806 201.612L443.331 193.661C443.482 193.46 443.59 193.231 443.649 192.986C443.708 192.742 443.716 192.489 443.674 192.241C443.631 191.993 443.539 191.757 443.402 191.547C443.265 191.336 443.086 191.155 442.877 191.016L437.618 187.369C437.409 187.23 437.175 187.129 436.93 187.072C436.698 187.054 436.465 187.075 436.241 187.135Z" fill="#503C6B"/>
<path d="M441.437 187.416C441.585 187.449 441.74 187.433 441.878 187.371C442.016 187.309 442.13 187.204 442.204 187.072C442.204 187.072 445.115 182.236 447.713 176.836C451.266 169.449 452.628 164.472 451.751 162.03C451.188 160.465 450.343 159.651 449.2 159.479C448.055 159.427 446.933 159.819 446.07 160.574L446.853 161.811C447.437 161.255 448.207 160.937 449.013 160.919C449.576 161.013 450.045 161.545 450.39 162.484C451.955 166.647 444.129 181.078 440.999 186.274C440.948 186.356 440.915 186.447 440.9 186.542C440.885 186.637 440.889 186.734 440.913 186.828C440.936 186.921 440.978 187.009 441.036 187.086C441.094 187.163 441.166 187.227 441.249 187.276C441.301 187.336 441.365 187.384 441.437 187.416Z" fill="#5587F0"/>
<path d="M442.047 192.832C441.242 194.084 440.347 195.276 439.371 196.4C439.105 196.682 438.651 196.291 438.917 195.993C439.862 194.913 440.73 193.767 441.515 192.566C441.552 192.495 441.615 192.44 441.691 192.414C441.766 192.388 441.849 192.392 441.922 192.425C442.048 192.425 442.141 192.707 442.047 192.832Z" fill="white"/>
<path d="M438.182 197.965L437.306 199.233C437.251 199.29 437.18 199.328 437.102 199.343C437.031 199.367 436.954 199.367 436.883 199.343C436.855 199.315 436.833 199.282 436.818 199.246C436.803 199.21 436.795 199.171 436.795 199.131C436.795 199.092 436.803 199.053 436.818 199.017C436.833 198.981 436.855 198.948 436.883 198.92L437.76 197.637C437.814 197.58 437.885 197.541 437.963 197.527C438.034 197.503 438.111 197.503 438.182 197.527C438.239 197.586 438.272 197.664 438.272 197.746C438.272 197.828 438.239 197.907 438.182 197.965Z" fill="white"/>
<path d="M448.308 165.833C447.562 161.9 445.827 158.222 443.269 155.143C440.498 151.841 436.319 148.648 431.749 149.634C431.374 149.728 431.17 149.149 431.561 149.071C433.345 148.8 435.168 148.957 436.88 149.528C438.591 150.1 440.143 151.069 441.406 152.358C443.893 154.601 445.882 157.342 447.244 160.402C448.018 162.128 448.58 163.941 448.919 165.802C448.919 166.178 448.387 166.225 448.308 165.802V165.833Z" fill="#783238"/>
<path d="M364.84 353.915L365.184 353.57C365.028 353.398 348.578 336.886 329.578 320.875C304.019 299.354 286.255 288.962 276.77 289.979C270.635 292.014 257.222 312.329 250.977 322.205L251.76 321.908C258.114 311.907 271.089 292.421 276.896 290.433C299.183 288.132 364.198 353.242 364.84 353.915Z" fill="#3849C9"/>
<path d="M420.871 180.483C420.871 180.577 412.952 178.182 412.263 176.711C411.575 175.24 412.044 172.798 414.814 174.348C417.585 175.897 420.965 179.747 420.871 180.483Z" fill="#6A2C31"/>
<path d="M300.857 161.748C300.764 164.096 301.718 166.021 302.986 166.068C304.254 166.115 305.318 164.253 305.412 161.905C305.506 159.557 305.725 157.053 303.283 157.569C300.842 158.086 300.936 159.401 300.857 161.748Z" fill="#F8A68B"/>
<path d="M297.148 166.428C297.446 169.089 298.713 171.123 299.965 170.983C301.218 170.842 301.984 168.572 301.671 165.912C301.358 163.251 301.186 160.387 298.87 161.341C296.553 162.296 296.851 163.767 297.148 166.428Z" fill="#F8A68B"/>
<path d="M293.392 171.217C293.674 173.8 294.957 175.787 296.162 175.647C297.367 175.506 298.197 173.315 297.931 170.732C297.665 168.15 297.477 165.379 295.161 166.303C292.844 167.226 293.11 168.635 293.392 171.217Z" fill="#F8A68B"/>
<path d="M291.796 178.12C292.562 180.326 294.018 181.813 295.082 181.453C296.147 181.093 296.366 179.012 295.615 176.758C294.863 174.504 294.175 172.156 292.343 173.424C290.512 174.692 291.06 175.928 291.796 178.12Z" fill="#F8A68B"/>
<path d="M232.853 402.809L212.005 382.024L202.521 396.987L219.94 412.2L232.853 402.809Z" fill="#4A76D1"/>
<path d="M197.622 342.724L190.125 316.023L176.665 323.99L183.614 347.216L197.622 342.724Z" fill="#4A76D1"/>
<path d="M413.14 197.527C413.974 197.527 414.807 197.453 415.629 197.308C415.659 197.304 415.688 197.294 415.715 197.279C415.741 197.263 415.764 197.242 415.782 197.217C415.799 197.192 415.812 197.163 415.818 197.133C415.824 197.103 415.823 197.072 415.816 197.042C415.813 197.009 415.802 196.978 415.786 196.95C415.769 196.922 415.747 196.897 415.721 196.878C415.694 196.859 415.664 196.845 415.632 196.839C415.6 196.832 415.567 196.832 415.535 196.838C413.91 197.182 412.231 197.173 410.611 196.811C408.991 196.449 407.467 195.743 406.144 194.741C406.123 194.718 406.098 194.699 406.07 194.686C406.041 194.674 406.011 194.667 405.979 194.667C405.948 194.667 405.918 194.674 405.889 194.686C405.861 194.699 405.836 194.718 405.815 194.741C405.771 194.788 405.747 194.849 405.747 194.913C405.747 194.977 405.771 195.039 405.815 195.086C407.888 196.745 410.486 197.611 413.14 197.527Z" fill="#522D34"/>
<path d="M429.496 229.471C426.233 230.977 422.664 231.7 419.072 231.584C417.493 231.501 415.981 230.92 414.752 229.925C413.655 228.966 412.847 227.719 412.42 226.325C412.019 224.868 411.916 223.345 412.117 221.847C412.319 220.349 412.821 218.907 413.594 217.608L414.424 217.342C412.909 219.702 412.318 222.539 412.765 225.308C413.058 226.756 413.764 228.088 414.799 229.143C416.014 230.289 417.606 230.952 419.276 231.005C422.603 231.062 425.904 230.394 428.948 229.049C432.16 227.723 435.165 225.941 437.869 223.759C440.345 221.77 442.64 219.565 444.725 217.17L445.272 217.467C440.985 222.605 435.592 226.709 429.496 229.471Z" fill="#779FFF"/>
<path d="M471.66 161.952C471.604 162.457 471.399 162.934 471.071 163.323C470.744 163.711 470.308 163.994 469.82 164.135C469.331 164.276 468.812 164.268 468.328 164.114C467.844 163.959 467.416 163.664 467.1 163.266C466.783 162.869 466.592 162.386 466.55 161.879C466.509 161.373 466.618 160.865 466.865 160.421C467.112 159.977 467.485 159.616 467.938 159.384C468.39 159.152 468.901 159.06 469.406 159.119C470.08 159.197 470.695 159.54 471.117 160.07C471.54 160.601 471.735 161.278 471.66 161.952Z" fill="#503C6B"/>
<path d="M479.063 160.152C479.007 160.653 478.804 161.127 478.479 161.513C478.154 161.899 477.722 162.18 477.238 162.321C476.753 162.461 476.238 162.455 475.757 162.302C475.276 162.15 474.851 161.858 474.535 161.464C474.22 161.07 474.029 160.591 473.986 160.089C473.942 159.586 474.049 159.082 474.293 158.64C474.536 158.198 474.905 157.838 475.353 157.605C475.801 157.373 476.308 157.279 476.809 157.335C477.482 157.409 478.097 157.748 478.52 158.276C478.942 158.805 479.138 159.479 479.063 160.152Z" fill="#503C6B"/>
<path d="M471.347 162.343H471.238C471.188 162.339 471.14 162.325 471.096 162.303C471.052 162.28 471.013 162.249 470.981 162.211C470.949 162.173 470.925 162.13 470.91 162.082C470.895 162.035 470.889 161.985 470.893 161.936L471.692 151.731C471.699 151.643 471.737 151.559 471.801 151.496C471.864 151.433 471.947 151.394 472.036 151.387L480.159 150.62C480.271 150.621 480.378 150.666 480.456 150.745C480.498 150.785 480.529 150.835 480.545 150.889C480.562 150.944 480.563 151.003 480.55 151.058L478.985 160.293C478.963 160.388 478.905 160.472 478.824 160.527C478.743 160.582 478.644 160.604 478.547 160.59C478.498 160.585 478.451 160.569 478.409 160.544C478.367 160.519 478.331 160.486 478.303 160.446C478.275 160.406 478.255 160.361 478.246 160.312C478.237 160.264 478.238 160.215 478.25 160.168L479.674 151.418L472.349 152.091L471.582 161.999C471.584 162.073 471.562 162.147 471.52 162.208C471.478 162.27 471.417 162.317 471.347 162.343Z" fill="#503C6B"/>
<path d="M473.131 129.976C473.356 130.39 473.452 130.862 473.408 131.33C473.363 131.799 473.179 132.244 472.879 132.608C472.58 132.971 472.179 133.237 471.727 133.371C471.276 133.505 470.794 133.501 470.345 133.36C469.896 133.218 469.499 132.946 469.206 132.577C468.912 132.208 468.736 131.761 468.699 131.291C468.662 130.821 468.766 130.351 468.998 129.941C469.23 129.532 469.579 129.2 470.001 128.99C470.549 128.717 471.181 128.667 471.765 128.851C472.349 129.035 472.839 129.438 473.131 129.976Z" fill="#503C6B"/>
<path d="M472.803 130.321C472.727 130.337 472.649 130.33 472.579 130.299C472.508 130.268 472.45 130.215 472.411 130.148L467.716 121.963C467.686 121.905 467.67 121.84 467.67 121.775C467.67 121.71 467.686 121.645 467.716 121.587C467.747 121.531 467.792 121.484 467.847 121.451C467.902 121.418 467.965 121.4 468.029 121.399C468.994 121.301 469.969 121.409 470.889 121.717C471.81 122.025 472.654 122.525 473.366 123.184C473.401 123.218 473.429 123.26 473.448 123.306C473.467 123.351 473.476 123.4 473.476 123.45C473.476 123.499 473.467 123.548 473.448 123.594C473.429 123.639 473.401 123.681 473.366 123.716C473.295 123.778 473.203 123.813 473.108 123.813C473.013 123.813 472.921 123.778 472.849 123.716C471.706 122.661 470.194 122.099 468.639 122.151L473.053 129.804C473.1 129.892 473.111 129.994 473.085 130.09C473.059 130.186 472.997 130.268 472.912 130.321H472.803Z" fill="#503C6B"/>
<path d="M489.643 143.608C489.722 144.028 489.675 144.461 489.507 144.853C489.34 145.246 489.061 145.58 488.704 145.814C488.347 146.047 487.929 146.17 487.502 146.167C487.076 146.163 486.66 146.033 486.307 145.794C485.954 145.554 485.68 145.215 485.519 144.82C485.359 144.425 485.319 143.991 485.404 143.573C485.49 143.155 485.697 142.772 486.001 142.472C486.304 142.172 486.689 141.968 487.108 141.887C487.672 141.781 488.255 141.903 488.73 142.225C489.205 142.548 489.533 143.045 489.643 143.608Z" fill="#503C6B"/>
<path d="M496.718 138.663C496.796 139.082 496.749 139.515 496.582 139.908C496.415 140.3 496.135 140.634 495.778 140.868C495.422 141.102 495.004 141.224 494.577 141.221C494.15 141.217 493.735 141.088 493.382 140.848C493.029 140.608 492.755 140.27 492.594 139.874C492.433 139.479 492.393 139.045 492.479 138.627C492.565 138.21 492.772 137.826 493.075 137.526C493.378 137.226 493.764 137.023 494.182 136.941C494.747 136.835 495.33 136.957 495.805 137.28C496.28 137.602 496.608 138.099 496.718 138.663Z" fill="#503C6B"/>
<path d="M489.268 143.843C489.174 143.862 489.077 143.842 488.998 143.79C488.919 143.737 488.864 143.655 488.845 143.562L486.56 133.576C486.542 133.491 486.554 133.403 486.594 133.326C486.634 133.249 486.699 133.188 486.779 133.153L494.307 130.023C494.408 129.983 494.52 129.983 494.62 130.023C494.672 130.046 494.717 130.081 494.752 130.124C494.787 130.168 494.812 130.219 494.824 130.274L496.671 138.537C496.682 138.586 496.684 138.636 496.676 138.685C496.668 138.734 496.651 138.781 496.625 138.823C496.599 138.865 496.564 138.902 496.524 138.931C496.483 138.96 496.438 138.98 496.389 138.991C496.342 139.003 496.293 139.005 496.245 138.996C496.197 138.988 496.151 138.971 496.11 138.944C496.069 138.918 496.034 138.884 496.006 138.843C495.979 138.803 495.96 138.757 495.951 138.71L494.182 130.884L487.358 133.732L489.565 143.405C489.577 143.453 489.579 143.503 489.571 143.552C489.563 143.602 489.545 143.649 489.519 143.691C489.493 143.733 489.458 143.77 489.418 143.798C489.378 143.827 489.332 143.848 489.283 143.859L489.268 143.843Z" fill="#503C6B"/>
<path d="M487.64 136.565C487.552 136.58 487.461 136.563 487.384 136.517C487.307 136.471 487.249 136.399 487.221 136.314C487.193 136.229 487.196 136.136 487.229 136.053C487.263 135.97 487.326 135.902 487.405 135.861L494.871 132.496C494.962 132.455 495.066 132.451 495.16 132.486C495.254 132.521 495.33 132.593 495.372 132.684C495.413 132.775 495.417 132.879 495.382 132.973C495.346 133.067 495.275 133.143 495.184 133.185L487.718 136.55L487.64 136.565Z" fill="#503C6B"/>
<path d="M390.226 234.589C389.771 237.99 388.462 241.221 386.423 243.98C384.404 246.907 381.884 249.411 379.709 252.213C377.511 254.907 375.718 257.907 374.387 261.118C373.899 262.419 373.609 263.785 373.527 265.172C373.347 267.081 373.268 268.999 373.292 270.916C373.292 274.688 374.747 278.898 372.666 282.373C372.624 282.441 372.557 282.49 372.479 282.51C372.402 282.529 372.319 282.516 372.251 282.474C372.182 282.433 372.133 282.366 372.114 282.288C372.095 282.21 372.108 282.128 372.149 282.06C374.027 278.929 372.838 275.142 372.713 271.746C372.653 269.846 372.694 267.944 372.838 266.048C372.883 264.618 373.104 263.199 373.495 261.823C374.567 258.83 376.087 256.017 378.003 253.48C380.053 250.616 382.526 248.112 384.67 245.342C387.292 242.297 389.006 238.577 389.616 234.605C389.616 234.229 390.273 234.214 390.226 234.605V234.589Z" fill="#779FFF"/>
<path d="M224.213 463.975C224.213 463.975 208.562 403.435 245.875 365.575C283.187 327.715 355.246 351.489 387.488 337.027C419.729 322.565 432.548 306.304 449.482 286.818C466.417 267.332 465.04 238.721 483.289 251.023C501.538 263.325 538.992 319.435 535.517 375.482C532.043 431.529 497.845 463.975 497.845 463.975H224.213Z" fill="#FFAAAA"/>
<path d="M205.776 430.246C205.776 430.246 213.602 443.847 200.439 448.793C198.53 449.497 194.382 449.028 189.749 448.793C190.892 439.324 196.949 433.689 205.776 430.246Z" fill="#98BFFF"/>
<path d="M142.373 436.741C147.35 438.666 152.264 444.567 150.668 451.469C139.9 449.481 134.172 446.649 133.373 441.171C132.794 437.586 136.832 437.133 142.373 436.741Z" fill="#98BFFF"/>
<path d="M192.457 411.418L195.791 413.687C197.596 411.341 199.228 408.867 200.674 406.284L201.143 406.691C199.699 409.251 198.072 411.704 196.276 414.031C197.387 414.798 198.498 415.596 199.594 416.395C201.374 414.205 202.975 411.876 204.383 409.43L204.853 409.821C203.465 412.242 201.895 414.555 200.157 416.739L202.943 418.789C204.665 416.692 206.261 414.501 207.764 412.247L208.233 412.638C206.668 414.877 205.103 417.068 203.429 419.149L206.903 421.81C208.534 419.722 209.954 417.478 211.145 415.111L211.63 415.503C210.428 417.861 209.003 420.1 207.373 422.186L209.893 424.189L209.548 424.69C203.935 420.172 198.123 415.904 192.113 411.887L192.457 411.418Z" fill="#98BFFF"/>
<path d="M169.841 348.249C169.841 348.437 169.95 348.64 169.997 348.844L162.985 352.397C163.252 353.586 163.533 354.76 163.831 355.934L163.267 356.231C161.514 349.052 159.996 341.816 158.713 334.523L159.26 334.21L159.683 336.526C161.696 335.188 163.786 333.97 165.944 332.879C165.944 333.067 166.053 333.271 166.1 333.474C163.941 334.579 161.85 335.812 159.84 337.168C159.98 337.997 160.137 338.811 160.293 339.625C162.453 338.42 164.644 337.293 166.867 336.213C166.867 336.417 166.977 336.62 167.023 336.824C164.785 337.903 162.594 339.046 160.419 340.251C160.606 341.237 160.81 342.223 161.013 343.209C163.201 341.965 165.496 340.918 167.869 340.079L168.01 340.658C165.633 341.501 163.334 342.548 161.139 343.788C161.389 345.072 161.671 346.34 161.937 347.607L168.808 343.929C168.808 344.133 168.902 344.336 168.964 344.54L162.078 348.233C162.328 349.412 162.594 350.586 162.876 351.755L169.841 348.249Z" fill="#98BFFF"/>
<path d="M156.709 361.693C153.876 365.919 147.866 372.9 140.135 370.443C131.902 367.844 132.309 362.742 131.558 354.791C140.589 351.191 152.781 355.762 156.709 361.693Z" fill="#98BFFF"/>
<path d="M141.089 297.57C144.893 298.854 145.143 302.907 144.971 308.135C141.011 314.661 134.344 316.367 126.189 315.35C128.005 304.519 135.267 295.598 141.089 297.57Z" fill="#98BFFF"/>
<path d="M530.525 405.439C520.085 443.002 497.876 464.053 497.876 464.053H224.213C224.213 464.053 216.967 404.484 284.549 392.198C352.131 379.912 348.218 423.579 425.802 436.867C470.705 444.473 506.39 428.446 530.525 405.439Z" fill="#F98C8C"/>
<path d="M125.156 464.46H615.746C615.809 464.46 615.872 464.447 615.931 464.423C615.99 464.398 616.044 464.363 616.089 464.318C616.134 464.273 616.17 464.219 616.194 464.16C616.218 464.101 616.231 464.038 616.231 463.975C616.231 463.911 616.218 463.848 616.194 463.789C616.17 463.73 616.134 463.677 616.089 463.631C616.044 463.586 615.99 463.551 615.931 463.526C615.872 463.502 615.809 463.489 615.746 463.489H125.156C125.092 463.489 125.029 463.502 124.971 463.526C124.912 463.551 124.858 463.586 124.813 463.631C124.768 463.677 124.732 463.73 124.708 463.789C124.684 463.848 124.671 463.911 124.671 463.975C124.671 464.038 124.684 464.101 124.708 464.16C124.732 464.219 124.768 464.273 124.813 464.318C124.858 464.363 124.912 464.398 124.971 464.423C125.029 464.447 125.092 464.46 125.156 464.46Z" fill="#3E2E53"/>
<path d="M220.77 415.847C222.126 401.928 227.089 388.603 235.169 377.188C243.156 365.726 253.928 356.483 266.472 350.331C281.81 342.959 299.026 341.456 315.82 341.456C324.961 341.456 334.101 341.801 343.241 342.004C352.632 342.223 362.117 342.364 371.57 342.333C390.351 342.425 409.12 341.38 427.774 339.203C430.153 338.905 432.469 338.577 434.911 338.232C436.476 337.997 437.102 340.329 435.553 340.564C417.236 343.143 398.769 344.518 380.272 344.681C361.804 344.962 343.351 344.367 324.882 343.976C307.666 343.616 289.839 343.835 273.484 350.002C260.706 355.04 249.437 363.276 240.757 373.92C232.078 384.565 226.278 397.261 223.916 410.792C223.634 412.466 223.431 414.157 223.274 415.847C223.118 417.537 220.707 417.412 220.848 415.847H220.77Z" fill="#FF5F5F"/>
<path d="M365.075 343.147C379.182 338.326 393.21 333.307 407.161 328.09C421.111 322.873 434.994 317.463 448.809 311.86C456.53 308.73 464.22 305.537 471.879 302.281C472.157 302.124 472.484 302.08 472.793 302.159C473.103 302.238 473.369 302.433 473.538 302.704C473.698 302.982 473.742 303.313 473.659 303.623C473.577 303.934 473.376 304.2 473.1 304.363C459.295 310.237 445.407 315.908 431.436 321.376C417.465 326.843 403.54 332.086 389.663 337.105C381.722 339.954 373.766 342.745 365.795 345.479C365.485 345.566 365.154 345.527 364.874 345.37C364.593 345.213 364.387 344.951 364.3 344.641C364.213 344.332 364.252 344.001 364.409 343.721C364.566 343.44 364.828 343.234 365.137 343.147H365.075Z" fill="#FF5F5F"/>
<path d="M402.059 329.467C411.731 322.435 421.3 315.272 430.763 307.978C440.227 300.685 449.519 293.334 458.638 285.926C463.855 281.689 469.036 277.411 474.18 273.092C474.408 272.869 474.714 272.744 475.033 272.744C475.352 272.744 475.658 272.869 475.886 273.092C476 273.202 476.091 273.335 476.153 273.481C476.215 273.628 476.246 273.785 476.246 273.944C476.246 274.104 476.215 274.261 476.153 274.408C476.091 274.554 476 274.687 475.886 274.797C466.704 282.519 457.417 290.104 448.027 297.554C438.636 305.004 429.125 312.345 419.494 319.576C414.121 323.614 408.716 327.61 403.28 331.565C403.142 331.646 402.99 331.699 402.832 331.721C402.674 331.743 402.513 331.733 402.359 331.692C402.204 331.652 402.059 331.581 401.933 331.484C401.806 331.386 401.7 331.265 401.621 331.126C401.465 330.847 401.423 330.518 401.505 330.209C401.587 329.899 401.785 329.634 402.059 329.467Z" fill="#FF5F5F"/>
<path d="M81.5049 338.827L82.4284 338.561C80.4323 330.795 79.5367 322.786 79.7677 314.771C79.915 297.145 85.732 280.034 96.358 265.97L95.5911 265.375C84.8189 279.61 78.9191 296.936 78.766 314.787C78.5426 322.889 79.4647 330.982 81.5049 338.827Z" fill="white"/>
<path d="M94.5737 267.989C94.5737 267.989 109.755 262.871 115.75 254.498C121.744 246.124 111.415 241.429 101.006 252.604C90.5983 263.779 94.5737 267.989 94.5737 267.989Z" fill="white"/>
<path d="M88.814 276.785C88.814 276.676 93.6033 243.918 85.2612 250.835C76.9191 257.753 86.4664 281.575 86.4664 281.575L88.814 276.785Z" fill="white"/>
<path d="M82.7415 291.638C83.5084 291.435 112.714 286.567 111.117 278.413C109.521 270.259 85.5274 283.75 85.5274 283.75L82.7415 291.638Z" fill="white"/>
<path d="M79.345 321.297C79.345 321.297 110.006 306.178 105.357 297.445C100.709 288.712 79.5171 309.262 79.5171 309.262L79.345 321.297Z" fill="white"/>
<path d="M81.1919 295.629C81.1919 295.629 78.5468 265.125 71.6759 273.483C64.805 281.841 79.7676 306.069 79.7676 306.069L81.1919 295.629Z" fill="white"/>
<path d="M592.284 250.929C594.62 241.358 595.594 231.505 595.18 221.661C594.674 199.968 587.194 179.014 573.847 161.905L573.08 162.5C586.291 179.441 593.699 200.184 594.21 221.661C594.618 231.409 593.66 241.166 591.361 250.648L592.284 250.929Z" fill="white"/>
<path d="M575.225 164.988C575.225 164.988 556.662 159.041 549.212 148.961C541.762 138.882 554.236 132.981 567.117 146.41C579.998 159.839 575.225 164.988 575.225 164.988Z" fill="white"/>
<path d="M582.393 175.584C582.315 175.459 575.96 135.658 586.228 143.968C596.495 152.279 585.32 181.375 585.32 181.375L582.393 175.584Z" fill="white"/>
<path d="M589.999 193.552C589.06 193.317 553.438 187.933 555.254 177.9C557.069 167.868 586.462 183.942 586.462 183.942L589.999 193.552Z" fill="white"/>
<path d="M594.695 229.581C594.695 229.581 557.132 211.738 562.625 201.08C568.119 190.421 594.272 214.963 594.272 214.963L594.695 229.581Z" fill="white"/>
<path d="M592.003 198.388C592.003 198.388 594.664 161.232 603.162 171.28C611.661 181.328 593.772 211.065 593.772 211.065L592.003 198.388Z" fill="white"/>
<path d="M328.169 171.906C328.019 172.537 328.068 173.198 328.31 173.8C328.294 173.93 328.294 174.061 328.31 174.191V174.535C327.481 174.113 327.512 172.97 327.59 172.141C327.635 171.416 327.793 170.703 328.06 170.028C328.31 169.926 328.574 169.863 328.842 169.84C328.468 170.47 328.238 171.176 328.169 171.906Z" fill="#EA8577"/>
<path d="M327.136 178.245L326.948 178.135H326.729C326.652 178.12 326.572 178.12 326.494 178.135H326.291C326.254 178.151 326.214 178.159 326.173 178.159C326.133 178.159 326.093 178.151 326.056 178.135C326.021 178.115 325.991 178.088 325.966 178.056C325.942 178.023 325.925 177.987 325.915 177.947C325.885 177.872 325.885 177.788 325.915 177.713C325.957 177.649 326.017 177.6 326.087 177.572C326.287 177.517 326.498 177.517 326.698 177.572H326.964C327.068 177.62 327.168 177.677 327.261 177.744C327.312 177.806 327.34 177.883 327.34 177.963C327.34 178.043 327.312 178.12 327.261 178.182C327.191 178.21 327.112 178.21 327.042 178.182H326.964H326.823L327.136 178.245Z" fill="#EA8577"/>
<path d="M301.421 164.769C301.356 164.408 301.329 164.04 301.343 163.673C301.327 162.998 301.5 162.331 301.844 161.748C301.951 161.631 302.081 161.537 302.227 161.472C302.372 161.408 302.53 161.375 302.689 161.375C302.848 161.375 303.005 161.408 303.151 161.472C303.297 161.537 303.427 161.631 303.534 161.748C304.039 162.199 304.403 162.786 304.583 163.439C304.7 163.816 304.779 164.204 304.817 164.597C304.684 164.901 304.511 165.185 304.301 165.442C304.273 164.817 304.174 164.197 304.004 163.595C303.816 163.032 303.44 162.202 302.814 162.03C302.188 161.858 302.016 163.032 301.969 163.454C301.892 164.23 301.999 165.013 302.282 165.739C302.294 165.767 302.3 165.796 302.3 165.825C302.3 165.855 302.294 165.884 302.282 165.912C301.89 165.623 301.591 165.225 301.421 164.769Z" fill="#EA8577"/>
<path d="M299.089 170.67C298.761 170.442 298.484 170.149 298.275 169.809C298.275 169.574 298.275 169.339 298.197 169.089C298.089 168.295 298.132 167.488 298.322 166.71C298.347 166.537 298.409 166.371 298.506 166.225C298.603 166.079 298.731 165.957 298.881 165.867C299.031 165.777 299.199 165.721 299.373 165.705C299.547 165.688 299.723 165.711 299.887 165.771C300.572 166.099 301.124 166.651 301.452 167.336C301.562 167.521 301.656 167.715 301.734 167.915C301.694 168.323 301.615 168.727 301.499 169.12C301.369 168.568 301.152 168.04 300.858 167.555C300.607 167.148 299.684 165.818 299.12 166.522C298.946 166.798 298.854 167.119 298.854 167.445C298.815 167.898 298.815 168.354 298.854 168.807C298.863 169.435 298.942 170.059 299.089 170.67Z" fill="#EA8577"/>
<path d="M294.081 171.718C294.125 171.35 294.299 171.009 294.571 170.756C294.844 170.504 295.197 170.357 295.568 170.341C296.366 170.341 296.929 171.108 297.321 171.718C297.54 172.078 297.728 172.454 297.915 172.829C297.872 173.179 297.798 173.525 297.696 173.862C297.164 172.532 296.037 170.106 294.973 171.233C294.347 171.89 294.676 173.033 294.973 173.784C295.183 174.428 295.472 175.043 295.834 175.615C295.376 175.481 294.978 175.194 294.707 174.801C294.629 174.629 294.566 174.457 294.488 174.269C294.127 173.47 293.986 172.59 294.081 171.718Z" fill="#EA8577"/>
<path d="M293.517 180.937C293.197 180.632 292.914 180.29 292.672 179.919C292.672 179.669 292.594 179.419 292.563 179.168C292.563 178.386 292.437 177.259 293.126 176.711C293.815 176.163 294.691 176.852 295.129 177.4L295.975 178.26C296.038 178.654 296.064 179.052 296.053 179.45C295.962 179.148 295.782 178.881 295.536 178.683L294.785 177.9C294.441 177.54 293.721 176.633 293.314 177.415C293.187 177.755 293.129 178.117 293.142 178.48C293.141 178.862 293.173 179.244 293.236 179.622C293.307 180.065 293.401 180.504 293.517 180.937Z" fill="#EA8577"/>
<path d="M332.802 266.69C329.854 267.062 326.883 267.229 323.912 267.191C322.55 267.066 321.157 263.857 319.811 258.896C326.51 258.223 330.752 263.294 332.802 266.69Z" fill="#EA8577"/>
<path d="M338.53 240.521L340.737 248.049C341.612 245.37 341.747 242.504 341.128 239.754L338.53 240.521Z" fill="#EA8577"/>
<path d="M324.256 195.352C324.256 195.101 324.116 194.851 324.053 194.6C323.254 195.73 322.257 196.706 321.111 197.48C320.782 197.699 321.111 198.216 321.408 197.997C322.494 197.275 323.456 196.381 324.256 195.352Z" fill="#EA8577"/>
<path d="M378.707 252.181C378.705 252.218 378.705 252.254 378.707 252.291V252.698C378.707 253.105 379.255 253.074 379.302 252.698C380.302 244.774 378.383 236.756 373.902 230.144L373.307 230.332C377.65 236.741 379.565 244.488 378.707 252.181Z" fill="#779FFF"/>
<path d="M445.46 284.329C445.535 279.946 444.744 275.591 443.133 271.514C441.521 267.437 439.121 263.718 436.069 260.571C435.227 259.713 434.339 258.904 433.408 258.145C432.367 257.198 431.126 256.497 429.777 256.094C429.7 256.073 429.635 256.023 429.595 255.954C429.556 255.885 429.545 255.803 429.566 255.726C429.587 255.65 429.637 255.584 429.706 255.545C429.775 255.505 429.857 255.494 429.934 255.515C432.12 256.263 434.077 257.562 435.615 259.287C437.243 260.827 438.707 262.531 439.982 264.374C442.574 268.088 444.404 272.28 445.366 276.707C445.902 279.211 446.143 281.769 446.086 284.329C446.07 284.398 446.031 284.46 445.976 284.504C445.92 284.549 445.851 284.573 445.781 284.573C445.71 284.573 445.641 284.549 445.585 284.504C445.53 284.46 445.491 284.398 445.475 284.329H445.46Z" fill="#779FFF"/>
<path d="M488.141 434.174C473.883 446.696 452.941 443.988 435.834 440.435C415.724 436.409 396.362 429.28 378.441 419.306C369.588 414.256 361.207 408.421 353.399 401.87C345.746 395.516 338.28 388.754 329.547 383.84C321.012 379.001 311.304 376.623 301.499 376.969C291.71 377.372 282.142 380.012 273.531 384.685C256.565 393.81 244.388 409.884 236.641 427.21C235.67 429.401 234.762 431.639 233.917 433.877C233.369 435.333 231.022 434.707 231.57 433.235C238.3 415.409 249.036 398.677 264.656 387.408C280.276 376.14 300.826 371.194 319.436 376.797C329.014 379.708 337.278 385.436 344.979 391.666C352.914 398.051 360.458 404.844 368.925 410.557C386.214 421.981 405.305 430.41 425.395 435.489C434.939 438.183 444.719 439.96 454.6 440.795C463.537 441.39 473.006 440.685 480.988 436.303C482.937 435.226 484.764 433.94 486.435 432.469C487.609 431.436 489.331 433.142 488.157 434.174H488.141Z" fill="#FF5F5F"/>
<path d="M477.717 438.76C477.44 438.918 477.112 438.961 476.803 438.883C476.494 438.804 476.227 438.609 476.058 438.338C475.897 438.061 475.851 437.732 475.93 437.422C476.009 437.111 476.207 436.845 476.481 436.679C490.4 430.445 502.688 421.076 512.385 409.305C517.334 403.262 521.538 396.647 524.906 389.6C530.679 377.552 533.954 364.46 534.532 351.113C535.074 355.339 535.429 359.596 535.596 363.885C534.181 372.139 531.752 380.187 528.365 387.847C525.118 395.233 520.976 402.193 516.032 408.569C506.492 420.814 494.281 430.717 480.331 437.524L477.717 438.76Z" fill="#FF5F5F"/>
<path d="M539.994 361.412C539.994 361.412 516.783 328.419 527.567 321.704C538.35 314.99 541.528 321.517 551.044 328.513C560.56 335.509 556.725 320.437 565.771 321.376C574.818 322.315 572.94 334.194 580.311 335.697C587.683 337.199 588.2 313.096 600.862 324.052C613.524 335.008 596.464 370.333 596.464 370.333L539.994 361.412Z" fill="#DCA424"/>
<path d="M532.355 364.855C532.355 364.855 524.217 355.605 530.947 349.658C537.677 343.71 549.587 358.109 554.596 355.292C559.604 352.475 555.425 334.945 567.305 334.46C579.184 333.975 580.28 342.286 586.227 341.472C592.175 340.658 594.773 319.435 607.576 327.574C620.378 335.712 603.131 365.638 603.131 365.638L532.355 364.855Z" fill="#FFC339"/>
<path d="M586.948 366.311H586.822C586.767 366.275 586.727 366.219 586.712 366.155C586.698 366.09 586.709 366.022 586.744 365.966L603.741 336.417C603.773 336.361 603.825 336.319 603.886 336.302C603.948 336.284 604.014 336.292 604.07 336.323C604.126 336.354 604.168 336.406 604.185 336.468C604.203 336.529 604.195 336.595 604.164 336.651L587.151 366.217C587.129 366.249 587.098 366.275 587.062 366.292C587.026 366.308 586.987 366.315 586.948 366.311Z" fill="#697F64"/>
<path d="M574.348 365.168C574.295 365.17 574.243 365.154 574.201 365.123C574.158 365.091 574.127 365.047 574.113 364.996L568.682 343.209C568.668 343.147 568.679 343.082 568.712 343.027C568.746 342.973 568.8 342.934 568.862 342.92C568.925 342.905 568.99 342.916 569.044 342.95C569.099 342.983 569.137 343.037 569.152 343.1L574.583 364.871C574.597 364.933 574.588 364.998 574.556 365.053C574.524 365.109 574.472 365.15 574.411 365.168H574.348Z" fill="#697F64"/>
<path d="M549.572 365.512C549.507 365.51 549.445 365.482 549.4 365.434L538.882 355.01C538.853 354.962 538.841 354.906 538.847 354.85C538.854 354.794 538.879 354.742 538.919 354.703C538.959 354.663 539.011 354.638 539.066 354.631C539.122 354.624 539.179 354.637 539.227 354.666L549.744 365.09C549.788 365.136 549.813 365.198 549.813 365.262C549.813 365.326 549.788 365.388 549.744 365.434C549.699 365.482 549.638 365.51 549.572 365.512Z" fill="#697F64"/>
<path d="M551.044 357.749C550.999 357.748 550.956 357.736 550.918 357.714C550.88 357.693 550.848 357.662 550.824 357.624L533.342 325.836C533.313 325.78 533.307 325.715 533.324 325.654C533.342 325.593 533.381 325.54 533.436 325.508C533.463 325.489 533.493 325.476 533.526 325.471C533.558 325.465 533.591 325.467 533.623 325.476C533.654 325.485 533.683 325.501 533.708 325.523C533.732 325.544 533.752 325.571 533.765 325.602L551.263 357.389C551.292 357.446 551.298 357.511 551.281 357.572C551.263 357.633 551.223 357.685 551.169 357.718L551.044 357.749Z" fill="#A7C99F"/>
<path d="M566.006 348.233C565.944 348.233 565.884 348.209 565.84 348.165C565.796 348.121 565.772 348.061 565.772 347.999L564.879 327.652C564.877 327.62 564.882 327.588 564.893 327.557C564.903 327.527 564.92 327.499 564.942 327.476C564.964 327.452 564.991 327.434 565.021 327.421C565.05 327.408 565.082 327.401 565.114 327.401C565.145 327.399 565.176 327.403 565.205 327.413C565.235 327.423 565.262 327.439 565.285 327.459C565.308 327.479 565.327 327.504 565.341 327.532C565.355 327.56 565.363 327.59 565.365 327.621L566.257 347.967C566.257 348.031 566.233 348.093 566.189 348.139C566.145 348.186 566.086 348.214 566.022 348.218L566.006 348.233Z" fill="#A7C99F"/>
<path d="M586.369 348.233H586.275C586.216 348.209 586.168 348.163 586.142 348.105C586.116 348.047 586.113 347.981 586.134 347.92L594.507 326.4C594.539 326.354 594.585 326.321 594.639 326.304C594.692 326.288 594.749 326.29 594.801 326.309C594.853 326.329 594.897 326.366 594.926 326.413C594.955 326.461 594.967 326.517 594.961 326.572L586.588 348.092C586.571 348.136 586.541 348.174 586.501 348.199C586.462 348.224 586.415 348.236 586.369 348.233Z" fill="#A7C99F"/>
<path d="M568.307 463.74C567.921 463.74 567.55 463.586 567.277 463.313C567.004 463.041 566.851 462.67 566.851 462.284V399.679C566.851 399.293 567.004 398.923 567.277 398.65C567.55 398.377 567.921 398.224 568.307 398.224C568.693 398.224 569.063 398.377 569.336 398.65C569.609 398.923 569.762 399.293 569.762 399.679V462.284C569.762 462.67 569.609 463.041 569.336 463.313C569.063 463.586 568.693 463.74 568.307 463.74Z" fill="#3E2E53"/>
<path d="M534.39 463.74H534.077C533.701 463.654 533.374 463.423 533.166 463.098C532.959 462.774 532.887 462.38 532.966 462.003L547.6 394.827C547.624 394.626 547.689 394.431 547.792 394.257C547.895 394.082 548.034 393.931 548.199 393.813C548.364 393.695 548.552 393.613 548.75 393.572C548.949 393.53 549.154 393.531 549.352 393.574C549.551 393.617 549.738 393.7 549.902 393.82C550.066 393.939 550.203 394.091 550.305 394.267C550.407 394.442 550.471 394.637 550.493 394.839C550.515 395.04 550.494 395.244 550.433 395.438L535.799 462.629C535.722 462.945 535.542 463.226 535.286 463.427C535.031 463.628 534.716 463.739 534.39 463.74Z" fill="#3E2E53"/>
<path d="M603.131 463.74C602.8 463.738 602.479 463.624 602.22 463.416C601.962 463.209 601.781 462.92 601.707 462.597L587.073 395.406C587.031 395.22 587.028 395.028 587.061 394.84C587.095 394.653 587.165 394.473 587.269 394.313C587.372 394.153 587.506 394.015 587.663 393.907C587.82 393.799 587.997 393.724 588.184 393.685C588.561 393.605 588.955 393.677 589.28 393.885C589.605 394.093 589.835 394.42 589.921 394.796L604.555 461.971C604.635 462.349 604.563 462.742 604.355 463.067C604.147 463.392 603.82 463.622 603.444 463.709L603.131 463.74Z" fill="#3E2E53"/>
<path d="M527.034 362.539V377.517C527.034 382.805 528.076 388.042 530.1 392.928C532.124 397.814 535.09 402.253 538.829 405.993C542.569 409.732 547.008 412.698 551.894 414.722C556.78 416.746 562.017 417.788 567.305 417.788C577.986 417.788 588.229 413.545 595.781 405.993C603.333 398.44 607.576 388.197 607.576 377.517V362.539H527.034Z" fill="white"/>
<path d="M594.695 407.004C597.274 404.603 599.531 401.878 601.409 398.897V362.539H594.695V407.004Z" fill="#FFEDDD"/>
<path d="M537.755 404.875C544.677 412.367 554.19 416.944 564.363 417.678V362.539H537.755V404.875Z" fill="#FFB8C9"/>
<path d="M607.576 368.737H527.034V369.065H607.576V368.737Z" fill="#E29570"/>
</svg>
